# xmcd
#
# Track frame offsets: 
#        200
#        13100
#        26000
#        41150
#        56075
#        67100
#        85400
#        104975
#        115925
#        133400
#        143075
#        164375
#
# Disc length: 2352 seconds
#
# Revision: 2
# Processed by: cddbd v1.5.2PL0 Copyright (c) Steve Scherf et al.
# Submitted via: ExactAudioCopy v1.0b1
#
DISCID=ba092e0c
DTITLE=John Hammond - Big City Blues
DYEAR=1900
DGENRE=
TTITLE0=I'm Ready
TTITLE1=My Starter Won't Start
TTITLE2=Barbecue Blues
TTITLE3=I'm a Man
TTITLE4=Barrelhouse Woman Blues
TTITLE5=Midnight Hour Blues
TTITLE6=Back Door Man
TTITLE7=I Live the Life I Love
TTITLE8=No Money Down
TTITLE9=My Babe
TTITLE10=When You Got a Good Friend
TTITLE11=Baby, Won't You Tell Me
EXTD=
EXTT0=
EXTT1=
EXTT2=
EXTT3=
EXTT4=
EXTT5=
EXTT6=
EXTT7=
EXTT8=
EXTT9=
EXTT10=
EXTT11=
PLAYORDER=
